HIERARCHY
ROOT Hips
{
  OFFSET 0.61027 101.635 1.07464
  CHANNELS 6 Xposition Yposition Zposition Zrotation Xrotation Yrotation
  JOINT Spine
  {
    OFFSET 0 10.1816 0.1315
    CHANNELS 6 Xposition Yposition Zposition Zrotation Xrotation Yrotation
    JOINT Spine1
    {
      OFFSET 0 10.0835 -1.0008
      CHANNELS 6 Xposition Yposition Zposition Zrotation Xrotation Yrotation
      JOINT Spine2
      {
        OFFSET 0 9.1 -1.3734
        CHANNELS 6 Xposition Yposition Zposition Zrotation Xrotation Yrotation
        JOINT Neck
        {
          OFFSET 0 16.6717 -2.5162
          CHANNELS 6 Xposition Yposition Zposition Zrotation Xrotation Yrotation
          JOINT Head
          {
            OFFSET 0 9.6179 1.685
            CHANNELS 6 Xposition Yposition Zposition Zrotation Xrotation Yrotation
            JOINT HeadTop_End
            {
              OFFSET 0 17.8152 2.585
              CHANNELS 6 Xposition Yposition Zposition Zrotation Xrotation Yrotation
              End Site
              {
                OFFSET 0 0 0
              }
            }
            JOINT LeftEye
            {
              OFFSET 3.0676 6.4095 9.2836
              CHANNELS 6 Xposition Yposition Zposition Zrotation Xrotation Yrotation
              End Site
              {
                OFFSET 0 0 0
              }
            }
            JOINT RightEye
            {
              OFFSET -3.0676 6.4095 9.2835
              CHANNELS 6 Xposition Yposition Zposition Zrotation Xrotation Yrotation
              End Site
              {
                OFFSET 0 0 0
              }
            }
          }
        }
        JOINT LeftShoulder
        {
          OFFSET 4.5704 10.946 -2.628
          CHANNELS 6 Xposition Yposition Zposition Zrotation Xrotation Yrotation
          JOINT LeftArm
          {
            OFFSET 10.5924 -0.5246 -2.2321
            CHANNELS 6 Xposition Yposition Zposition Zrotation Xrotation Yrotation
            JOINT LeftForeArm
            {
              OFFSET 27.8415 -0.0001 0
              CHANNELS 6 Xposition Yposition Zposition Zrotation Xrotation Yrotation
              JOINT LeftHand
              {
                OFFSET 28.3288 0 0
                CHANNELS 6 Xposition Yposition Zposition Zrotation Xrotation Yrotation
                JOINT LeftHandThumb1
                {
                  OFFSET 2.4661 -1.575 2.6824
                  CHANNELS 6 Xposition Yposition Zposition Zrotation Xrotation Yrotation
                  JOINT LeftHandThumb2
                  {
                    OFFSET 3.2298 -1.8647 1.8647
                    CHANNELS 6 Xposition Yposition Zposition Zrotation Xrotation Yrotation
                    JOINT LeftHandThumb3
                    {
                      OFFSET 2.6526 -1.5315 1.5315
                      CHANNELS 6 Xposition Yposition Zposition Zrotation Xrotation Yrotation
                      End Site
                      {
                        OFFSET 1.9546 -1.1285 1.1285
                      }
                    }
                  }
                }
                JOINT LeftHandIndex1
                {
                  OFFSET 9.1093 -0.5171 2.2601
                  CHANNELS 6 Xposition Yposition Zposition Zrotation Xrotation Yrotation
                  JOINT LeftHandIndex2
                  {
                    OFFSET 3.6764 0 0
                    CHANNELS 6 Xposition Yposition Zposition Zrotation Xrotation Yrotation
                    JOINT LeftHandIndex3
                    {
                      OFFSET 2.8831 0 0
                      CHANNELS 6 Xposition Yposition Zposition Zrotation Xrotation Yrotation
                      End Site
                      {
                        OFFSET 2.3927 0 0
                      }
                    }
                  }
                }
                JOINT LeftHandMiddle1
                {
                  OFFSET 9.5334 0 0
                  CHANNELS 6 Xposition Yposition Zposition Zrotation Xrotation Yrotation
                  JOINT LeftHandMiddle2
                  {
                    OFFSET 3.6982 0 0
                    CHANNELS 6 Xposition Yposition Zposition Zrotation Xrotation Yrotation
                    JOINT LeftHandMiddle3
                    {
                      OFFSET 2.9509 0 0
                      CHANNELS 6 Xposition Yposition Zposition Zrotation Xrotation Yrotation
                      End Site
                      {
                        OFFSET 2.8339 0 0
                      }
                    }
                  }
                }
                JOINT LeftHandRing1
                {
                  OFFSET 9.1045 -0.0439 -1.8651
                  CHANNELS 6 Xposition Yposition Zposition Zrotation Xrotation Yrotation
                  JOINT LeftHandRing2
                  {
                    OFFSET 3.154 0 0
                    CHANNELS 6 Xposition Yposition Zposition Zrotation Xrotation Yrotation
                    JOINT LeftHandRing3
                    {
                      OFFSET 2.9377 0 0
                      CHANNELS 6 Xposition Yposition Zposition Zrotation Xrotation Yrotation
                      End Site
                      {
                        OFFSET 2.6475 0 0
                      }
                    }
                  }
                }
                JOINT LeftHandPinky1
                {
                  OFFSET 8.0778 -0.4887 -3.8061
                  CHANNELS 6 Xposition Yposition Zposition Zrotation Xrotation Yrotation
                  JOINT LeftHandPinky2
                  {
                    OFFSET 3.6 0 0
                    CHANNELS 6 Xposition Yposition Zposition Zrotation Xrotation Yrotation
                    JOINT LeftHandPinky3
                    {
                      OFFSET 2.1142 0 0
                      CHANNELS 6 Xposition Yposition Zposition Zrotation Xrotation Yrotation
                      End Site
                      {
                        OFFSET 1.9757 0 0
                      }
                    }
                  }
                }
              }
            }
          }
        }
        JOINT RightShoulder
        {
          OFFSET -4.57 10.9462 -2.628
          CHANNELS 6 Xposition Yposition Zposition Zrotation Xrotation Yrotation
          JOINT RightArm
          {
            OFFSET -10.5928 -0.5248 -2.2321
            CHANNELS 6 Xposition Yposition Zposition Zrotation Xrotation Yrotation
            JOINT RightForeArm
            {
              OFFSET -27.8415 0 0
              CHANNELS 6 Xposition Yposition Zposition Zrotation Xrotation Yrotation
              JOINT RightHand
              {
                OFFSET -28.3288 0 0.0001
                CHANNELS 6 Xposition Yposition Zposition Zrotation Xrotation Yrotation
                JOINT RightHandPinky1
                {
                  OFFSET -8.0767 -0.4885 -3.806
                  CHANNELS 6 Xposition Yposition Zposition Zrotation Xrotation Yrotation
                  JOINT RightHandPinky2
                  {
                    OFFSET -3.6 0 0.0001
                    CHANNELS 6 Xposition Yposition Zposition Zrotation Xrotation Yrotation
                    JOINT RightHandPinky3
                    {
                      OFFSET -2.1142 0 0
                      CHANNELS 6 Xposition Yposition Zposition Zrotation Xrotation Yrotation
                      End Site
                      {
                        OFFSET -1.9757 0 0
                      }
                    }
                  }
                }
                JOINT RightHandRing1
                {
                  OFFSET -9.1036 -0.0439 -1.8651
                  CHANNELS 6 Xposition Yposition Zposition Zrotation Xrotation Yrotation
                  JOINT RightHandRing2
                  {
                    OFFSET -3.154 0 0
                    CHANNELS 6 Xposition Yposition Zposition Zrotation Xrotation Yrotation
                    JOINT RightHandRing3
                    {
                      OFFSET -2.9377 0 0
                      CHANNELS 6 Xposition Yposition Zposition Zrotation Xrotation Yrotation
                      End Site
                      {
                        OFFSET -2.6475 0 0
                      }
                    }
                  }
                }
                JOINT RightHandMiddle1
                {
                  OFFSET -9.5325 0 0
                  CHANNELS 6 Xposition Yposition Zposition Zrotation Xrotation Yrotation
                  JOINT RightHandMiddle2
                  {
                    OFFSET -3.6982 0 0
                    CHANNELS 6 Xposition Yposition Zposition Zrotation Xrotation Yrotation
                    JOINT RightHandMiddle3
                    {
                      OFFSET -2.9509 0 0
                      CHANNELS 6 Xposition Yposition Zposition Zrotation Xrotation Yrotation
                      End Site
                      {
                        OFFSET -2.8339 0 0.0001
                      }
                    }
                  }
                }
                JOINT RightHandIndex1
                {
                  OFFSET -9.1083 -0.5168 2.2601
                  CHANNELS 6 Xposition Yposition Zposition Zrotation Xrotation Yrotation
                  JOINT RightHandIndex2
                  {
                    OFFSET -3.6764 0 0
                    CHANNELS 6 Xposition Yposition Zposition Zrotation Xrotation Yrotation
                    JOINT RightHandIndex3
                    {
                      OFFSET -2.8831 0 0
                      CHANNELS 6 Xposition Yposition Zposition Zrotation Xrotation Yrotation
                      End Site
                      {
                        OFFSET -2.3927 0 0
                      }
                    }
                  }
                }
                JOINT RightHandThumb1
                {
                  OFFSET -2.4648 -1.5727 2.6826
                  CHANNELS 6 Xposition Yposition Zposition Zrotation Xrotation Yrotation
                  JOINT RightHandThumb2
                  {
                    OFFSET -3.2298 -1.8647 1.8647
                    CHANNELS 6 Xposition Yposition Zposition Zrotation Xrotation Yrotation
                    JOINT RightHandThumb3
                    {
                      OFFSET -2.6526 -1.5314 1.5314
                      CHANNELS 6 Xposition Yposition Zposition Zrotation Xrotation Yrotation
                      End Site
                      {
                        OFFSET -1.9546 -1.1285 1.1285
                      }
                    }
                  }
                }
              }
            }
          }
        }
      }
    }
  }
  JOINT LeftUpLeg
  {
    OFFSET 8.2078 -6.7517 -1.5996
    CHANNELS 6 Xposition Yposition Zposition Zrotation Xrotation Yrotation
    JOINT LeftLeg
    {
      OFFSET 0 -44.3705 0.2846
      CHANNELS 6 Xposition Yposition Zposition Zrotation Xrotation Yrotation
      JOINT LeftFoot
      {
        OFFSET 0 -44.4279 -2.9822
        CHANNELS 6 Xposition Yposition Zposition Zrotation Xrotation Yrotation
        JOINT LeftToeBase
        {
          OFFSET 0 -8.7287 10.7106
          CHANNELS 6 Xposition Yposition Zposition Zrotation Xrotation Yrotation
          End Site
          {
            OFFSET 0 -0.0007 9.2781
          }
        }
      }
    }
  }
  JOINT RightUpLeg
  {
    OFFSET -8.2078 -6.7517 -1.5996
    CHANNELS 6 Xposition Yposition Zposition Zrotation Xrotation Yrotation
    JOINT RightLeg
    {
      OFFSET 0 -44.3705 0.2862
      CHANNELS 6 Xposition Yposition Zposition Zrotation Xrotation Yrotation
      JOINT RightFoot
      {
        OFFSET 0 -44.4277 -2.9838
        CHANNELS 6 Xposition Yposition Zposition Zrotation Xrotation Yrotation
        JOINT RightToeBase
        {
          OFFSET 0 -8.7287 10.7106
          CHANNELS 6 Xposition Yposition Zposition Zrotation Xrotation Yrotation
          End Site
          {
            OFFSET 0 -0.0007 9.2781
          }
        }
      }
    }
  }
}
MOTION
Frames:	4
Frame Time:	0.0333333
0.61027 101.635 1.07464 4.36685 -0.335848 38.2233 0 10.1816 0.1315 3.31152 7.89712 -1.89159 0 10.0835 -1.0008 0.03348 2.55117 -0.530769 1.77636e-015 9.1 -1.3734 0.0368205 2.54745 -0.539824 1.77636e-015 16.6717 -2.5162 2.33912 -3.20975 -4.11724 3.55271e-015 9.6179 1.685 5.36562 -10.6737 -18.7637 0 17.8152 2.585 -3.97569e-016 -1.59028e-015 -1.59028e-015 3.0676 6.4095 9.2836 -3.97569e-016 -1.59028e-015 -1.59028e-015 -3.0676 6.4095 9.2835 -3.97569e-016 -1.59028e-015 -1.59028e-015 4.5704 10.946 -2.628 -12.2091 3.72541 0.748101 10.5924 -0.5246 -2.2321 -68.8184 -0.638571 -20.045 27.8415 -0.0001 0 -0.000212778 -2.04044e-006 -15.2933 28.3288 -7.10543e-015 0 0.913052 37.227 0.220401 2.4661 -1.575 2.6824 3.38477 -1.3001 1.82798 3.2298 -1.8647 1.8647 1.64376 6.9769 16.236 2.6526 -1.5315 1.5315 13.0168 -7.6001 0.373474 9.1093 -0.5171 2.2601 -17.5514 -0.587016 0.0799656 3.6764 0 0 -26.294 -0.605109 2.59025 2.8831 -4.44089e-016 8.88178e-016 -23.5169 -0.485699 2.33306 9.5334 1.42109e-014 1.77636e-015 -23.9933 -1.40896 4.56341 3.6982 -3.55271e-015 -8.88178e-016 -26.3238 -0.606458 2.59298 2.9509 -8.88178e-016 -1.77636e-015 -23.224 -0.473838 2.30561 9.1045 -0.0439 -1.8651 -23.5063 -1.35235 9.02728 3.154 0 0 -26.4506 -0.612211 2.60458 2.9377 -3.55271e-015 0 -23.0831 -0.468181 2.29238 8.0778 -0.4887 -3.8061 -23.159 -2.63936 11.0549 3.6 0 0 -26.4655 -0.612885 2.60593 2.1142 -8.88178e-016 0 -29.3832 -0.75242 2.86922 -4.57 10.9462 -2.628 7.26795 3.86645 6.91361 -10.5928 -0.5248 -2.2321 67.7525 0.162341 29.1947 -27.8415 7.10543e-015 7.10543e-015 -1.35603e-005 2.43613e-005 18.4124 -28.3288 0 0.0001 3.60792 21.309 -0.94372 -8.0767 -0.4885 -3.806 22.6621 -2.49817 -10.4543 -3.6 0 0.0001 26.5193 -0.487717 -2.07109 -2.1142 -3.55271e-015 3.55271e-015 29.4438 -0.599617 -2.28179 -9.1036 -0.0439 -1.8651 22.9543 -1.20068 -8.42577 -3.154 7.10543e-015 0 26.5045 -0.487893 -2.07143 -2.9377 -3.55271e-015 0 23.1295 -0.373105 -1.8232 -9.5325 0 7.10543e-015 23.3495 -1.24211 -3.95597 -3.6982 3.55271e-015 -7.10543e-015 26.3774 -0.483311 -2.06219 -2.9509 -3.55271e-015 0 23.2707 -0.377608 -1.83574 -9.1083 -0.5168 2.2601 16.8059 -0.47875 0.405504 -3.6764 0 0 26.3475 -0.482234 -2.06002 -2.8831 -7.10543e-015 0 23.5642 -0.387069 -1.85552 -2.4648 -1.5727 2.6826 -2.77512 -2.4589 0.133458 -3.2298 -1.8647 1.8647 -2.31613 7.57112 -17.9514 -2.6526 -1.5314 1.5314 -14.5098 -4.30707 -5.84443 8.2078 -6.7517 -1.5996 4.12999 -15.7055 18.1417 1.77636e-015 -44.3705 0.2846 0.113631 58.9345 2.46096 3.55271e-015 -44.4279 -2.9822 -8.17472 0.197529 0.51182 0 -8.7287 10.7106 2.85795e-006 -0.971589 -9.37758e-006 -8.2078 -6.7517 -1.5996 -2.93046 -13.964 -12.8548 4.44089e-016 -44.3705 0.2862 -0.821791 25.8088 -8.60568 3.33067e-016 -44.4277 -2.9838 -1.81083 -9.72617 -4.12394 2.22045e-016 -8.7287 10.7106 5.34654e-006 9.53101e-006 1.6619e-006 
2.53776 101.885 1.08119 4.16031 -0.297508 36.6352 0 10.1816 0.1315 3.00287 8.01684 -1.30414 0 10.0835 -1.0008 -0.0869211 2.52374 -0.373962 -3.55271e-015 9.1 -1.3734 -0.0844042 2.52124 -0.382404 -1.77636e-015 16.6717 -2.5162 2.27879 -3.31901 -4.05755 3.55271e-015 9.6179 1.685 5.47071 -10.8219 -18.4135 0 17.8152 2.585 1.78906e-015 0 3.18055e-015 3.0676 6.4095 9.2836 1.78906e-015 0 3.18055e-015 -3.0676 6.4095 9.2835 1.78906e-015 0 3.18055e-015 4.5704 10.946 -2.628 -12.1948 3.64428 1.51281 10.5924 -0.5246 -2.2321 -68.6486 -3.52546 -18.5302 27.8415 -0.0001 0 -0.000195975 5.56344e-006 -14.0962 28.3288 0 -7.10543e-015 1.12944 37.3532 0.78001 2.4661 -1.575 2.6824 3.38477 -1.3001 1.82798 3.2298 -1.8647 1.8647 1.64376 6.9769 16.236 2.6526 -1.5315 1.5315 13.0168 -7.6001 0.373474 9.1093 -0.5171 2.2601 -17.5514 -0.587016 0.0799656 3.6764 0 -8.88178e-016 -26.294 -0.605109 2.59025 2.8831 0 0 -23.5169 -0.485699 2.33306 9.5334 0 0 -23.9933 -1.40896 4.56341 3.6982 0 0 -26.3238 -0.606458 2.59298 2.9509 -1.77636e-015 1.77636e-015 -23.224 -0.473838 2.30561 9.1045 -0.0439 -1.8651 -23.5063 -1.35235 9.02728 3.154 0 0 -26.4506 -0.612211 2.60458 2.9377 5.32907e-015 3.55271e-015 -23.0831 -0.468181 2.29238 8.0778 -0.4887 -3.8061 -23.159 -2.63936 11.0549 3.6 -7.10543e-015 -3.55271e-015 -26.4655 -0.612885 2.60593 2.1142 -4.44089e-016 -3.55271e-015 -29.3832 -0.75242 2.86922 -4.57 10.9462 -2.628 7.28206 3.90415 7.65125 -10.5928 -0.5248 -2.2321 67.1938 2.66732 30.7437 -27.8415 -7.10543e-015 -7.10543e-015 -2.16371e-006 -9.62911e-007 20.0123 -28.3288 0 0.0001 3.942 20.9851 -0.190776 -8.0767 -0.4885 -3.806 22.6621 -2.49817 -10.4543 -3.6 0 0.0001 26.5193 -0.487717 -2.07109 -2.1142 -7.10543e-015 0 29.4438 -0.599617 -2.28179 -9.1036 -0.0439 -1.8651 22.9543 -1.20068 -8.42577 -3.154 3.55271e-015 1.42109e-014 26.5045 -0.487893 -2.07143 -2.9377 -1.42109e-014 7.10543e-015 23.1295 -0.373105 -1.8232 -9.5325 0 -7.10543e-015 23.3495 -1.24211 -3.95597 -3.6982 0 -7.10543e-015 26.3774 -0.483311 -2.06219 -2.9509 0 -7.10543e-015 23.2707 -0.377608 -1.83574 -9.1083 -0.5168 2.2601 16.8059 -0.47875 0.405504 -3.6764 7.10543e-015 0 26.3475 -0.482234 -2.06002 -2.8831 3.55271e-015 0 23.5642 -0.387069 -1.85552 -2.4648 -1.5727 2.6826 -2.77512 -2.4589 0.133458 -3.2298 -1.8647 1.8647 -2.31613 7.57112 -17.9514 -2.6526 -1.5314 1.5314 -14.5098 -4.30707 -5.84443 8.2078 -6.7517 -1.5996 6.6386 -15.8036 17.2335 0 -44.3705 0.2846 -0.0910724 54.1749 2.17319 0 -44.4279 -2.9822 -6.03348 0.464204 0.6714 1.77636e-015 -8.7287 10.7106 3.34273e-006 -1.77852 1.39376e-005 -8.2078 -6.7517 -1.5996 -3.9289 -13.1055 -13.3806 -8.88178e-016 -44.3705 0.2862 -0.657424 25.0596 -7.72935 -2.22045e-016 -44.4277 -2.9838 -0.964449 -9.69165 -2.75386 5.55112e-016 -8.7287 10.7106 1.79909e-006 -3.88865e-005 7.47973e-006 
4.50281 101.951 1.06855 3.78478 -0.15959 34.8183 1.77636e-015 10.1816 0.1315 2.71574 8.16071 -0.73639 0 10.0835 -1.0008 -0.189837 2.4771 -0.220314 1.77636e-015 9.1 -1.3734 -0.188175 2.47581 -0.228137 0 16.6717 -2.5162 2.22587 -3.52255 -3.9939 7.10543e-015 9.6179 1.685 5.60653 -11.2093 -18.0396 0 17.8152 2.585 1.98785e-016 3.97569e-016 -0 3.0676 6.4095 9.2836 1.98785e-016 3.97569e-016 -0 -3.0676 6.4095 9.2835 1.98785e-016 3.97569e-016 -0 4.5704 10.946 -2.628 -12.2223 3.57701 2.17419 10.5924 -0.5246 -2.2321 -67.5277 -5.46646 -17.1863 27.8415 -0.0001 0 -0.000217355 -2.83081e-006 -12.2258 28.3288 0 0 0.903503 38.7198 1.0926 2.4661 -1.575 2.6824 3.38477 -1.3001 1.82798 3.2298 -1.8647 1.8647 1.64376 6.9769 16.236 2.6526 -1.5315 1.5315 13.0168 -7.6001 0.373474 9.1093 -0.5171 2.2601 -17.5514 -0.587016 0.0799656 3.6764 0 1.77636e-015 -26.294 -0.605109 2.59025 2.8831 1.77636e-015 0 -23.5169 -0.485699 2.33306 9.5334 0 0 -23.9933 -1.40896 4.56341 3.6982 0 0 -26.3238 -0.606458 2.59298 2.9509 -3.9968e-015 -3.55271e-015 -23.224 -0.473838 2.30561 9.1045 -0.0439 -1.8651 -23.5063 -1.35235 9.02728 3.154 0 0 -26.4506 -0.612211 2.60458 2.9377 -1.77636e-015 3.55271e-015 -23.0831 -0.468181 2.29238 8.0778 -0.4887 -3.8061 -23.159 -2.63936 11.0549 3.6 0 0 -26.4655 -0.612885 2.60593 2.1142 -1.77636e-015 0 -29.3832 -0.75242 2.86922 -4.57 10.9462 -2.628 7.26086 3.93813 8.39143 -10.5928 -0.5248 -2.2321 66.5207 5.54073 32.398 -27.8415 0 -7.10543e-015 -2.73913e-006 4.18531e-006 22.5213 -28.3288 0 0.0001 4.09327 20.1368 1.01891 -8.0767 -0.4885 -3.806 22.6621 -2.49817 -10.4543 -3.6 0 0.0001 26.5193 -0.487717 -2.07109 -2.1142 0 0 29.4438 -0.599617 -2.28179 -9.1036 -0.0439 -1.8651 22.9543 -1.20068 -8.42577 -3.154 -3.55271e-015 0 26.5045 -0.487893 -2.07143 -2.9377 -3.55271e-015 0 23.1295 -0.373105 -1.8232 -9.5325 0 0 23.3495 -1.24211 -3.95597 -3.6982 -3.55271e-015 0 26.3774 -0.483311 -2.06219 -2.9509 7.10543e-015 0 23.2707 -0.377608 -1.83574 -9.1083 -0.5168 2.2601 16.8059 -0.47875 0.405504 -3.6764 0 1.42109e-014 26.3475 -0.482234 -2.06002 -2.8831 -7.10543e-015 0 23.5642 -0.387069 -1.85552 -2.4648 -1.5727 2.6826 -2.77512 -2.4589 0.133458 -3.2298 -1.8647 1.8647 -2.31613 7.57112 -17.9514 -2.6526 -1.5314 1.5314 -14.5098 -4.30707 -5.84443 8.2078 -6.7517 -1.5996 8.78948 -15.2085 15.7392 0 -44.3705 0.2846 -0.103959 46.6377 0.274421 0 -44.4279 -2.9822 -4.6705 -0.0144725 0.573107 -3.55271e-015 -8.7287 10.7106 -2.78517 -3.83465 -0.108507 -8.2078 -6.7517 -1.5996 -4.96649 -12.8362 -13.9564 0 -44.3705 0.2862 -0.48509 24.9585 -6.29976 0 -44.4277 -2.9838 -0.171516 -9.88282 -1.68945 -2.22045e-016 -8.7287 10.7106 3.16606e-006 -4.58653e-005 3.32471e-006 
6.48796 102.049 1.07726 3.34296 0.0682359 32.8716 -1.77636e-015 10.1816 0.1315 2.42096 8.27427 -0.223502 0 10.0835 -1.0008 -0.277448 2.41616 -0.0796257 0 9.1 -1.3734 -0.276586 2.41601 -0.0869128 0 16.6717 -2.5162 2.18911 -3.75396 -3.91844 0 9.6179 1.685 5.75644 -11.669 -17.5975 -1.42109e-014 17.8152 2.585 -1.93815e-015 0 -0 3.0676 6.4095 9.2836 -1.93815e-015 0 -0 -3.0676 6.4095 9.2835 -1.93815e-015 0 -0 4.5704 10.946 -2.628 -12.208 3.51823 2.74447 10.5924 -0.5246 -2.2321 -66.0747 -6.90696 -15.9207 27.8415 -0.0001 -2.66454e-015 -0.000209942 4.48437e-006 -9.93453 28.3288 0 0 0.122297 41.0781 1.46714 2.4661 -1.575 2.6824 3.38477 -1.3001 1.82798 3.2298 -1.8647 1.8647 1.64376 6.9769 16.236 2.6526 -1.5315 1.5315 13.0168 -7.6001 0.373474 9.1093 -0.5171 2.2601 -17.5514 -0.587016 0.0799656 3.6764 -7.10543e-015 0 -26.294 -0.605109 2.59025 2.8831 -1.77636e-015 0 -23.5169 -0.485699 2.33306 9.5334 0 0 -23.9933 -1.40896 4.56341 3.6982 0 0 -26.3238 -0.606458 2.59298 2.9509 -3.10862e-015 0 -23.224 -0.473838 2.30561 9.1045 -0.0439 -1.8651 -23.5063 -1.35235 9.02728 3.154 7.10543e-015 -7.10543e-015 -26.4506 -0.612211 2.60458 2.9377 8.88178e-015 0 -23.0831 -0.468181 2.29238 8.0778 -0.4887 -3.8061 -23.159 -2.63936 11.0549 3.6 0 0 -26.4655 -0.612885 2.60593 2.1142 -8.88178e-016 -7.10543e-015 -29.3832 -0.75242 2.86922 -4.57 10.9462 -2.628 7.22292 3.9688 9.10399 -10.5928 -0.5248 -2.2321 65.8283 8.55611 33.9859 -27.8415 0 7.10543e-015 9.15005e-006 -4.01729e-006 25.4321 -28.3288 0 0.0001 4.20931 19.0583 2.37642 -8.0767 -0.4885 -3.806 22.6621 -2.49817 -10.4543 -3.6 0 0.0001 26.5193 -0.487717 -2.07109 -2.1142 3.55271e-015 0 29.4438 -0.599617 -2.28179 -9.1036 -0.0439 -1.8651 22.9543 -1.20068 -8.42577 -3.154 0 0 26.5045 -0.487893 -2.07143 -2.9377 0 0 23.1295 -0.373105 -1.8232 -9.5325 7.10543e-015 1.42109e-014 23.3495 -1.24211 -3.95597 -3.6982 -7.10543e-015 1.42109e-014 26.3774 -0.483311 -2.06219 -2.9509 -3.55271e-015 0 23.2707 -0.377608 -1.83574 -9.1083 -0.5168 2.2601 16.8059 -0.47875 0.405504 -3.6764 0 -1.42109e-014 26.3475 -0.482234 -2.06002 -2.8831 -3.55271e-015 -1.42109e-014 23.5642 -0.387069 -1.85552 -2.4648 -1.5727 2.6826 -2.77512 -2.4589 0.133458 -3.2298 -1.8647 1.8647 -2.31613 7.57112 -17.9514 -2.6526 -1.5314 1.5314 -14.5098 -4.30707 -5.84443 8.2078 -6.7517 -1.5996 10.6565 -14.1956 14.1506 0 -44.3705 0.2846 -0.0603766 37.2919 -2.08537 7.10543e-015 -44.4279 -2.9822 -3.95269 -0.916451 0.295727 0 -8.7287 10.7106 -4.32992 -4.92258 -0.184152 -8.2078 -6.7517 -1.5996 -5.9672 -12.549 -14.5701 8.88178e-016 -44.3705 0.2862 -0.307482 24.4623 -4.54877 0 -44.4277 -2.9838 0.543881 -9.82315 -0.834048 -1.11022e-016 -8.7287 10.7106 -1.85781e-007 -4.70316e-005 8.31425e-007 
